<svg width="566" height="351" viewBox="0 0 566 351" fill="none" xmlns="http://www.w3.org/2000/svg">
<rect y="291" width="563.576" height="60" rx="5" fill="#E8C300"/>
<path d="M248.284 317.434H250.95C252.165 317.434 253.046 317.607 253.593 317.955C254.144 318.299 254.419 318.848 254.419 319.602C254.419 320.113 254.298 320.533 254.056 320.861C253.817 321.189 253.499 321.387 253.101 321.453V321.512C253.644 321.633 254.034 321.859 254.273 322.191C254.515 322.523 254.636 322.965 254.636 323.516C254.636 324.297 254.353 324.906 253.786 325.344C253.224 325.781 252.458 326 251.489 326H248.284V317.434ZM250.101 320.826H251.155C251.648 320.826 252.003 320.75 252.222 320.598C252.444 320.445 252.556 320.193 252.556 319.842C252.556 319.514 252.435 319.279 252.192 319.139C251.954 318.994 251.575 318.922 251.056 318.922H250.101V320.826ZM250.101 322.268V324.5H251.284C251.784 324.5 252.153 324.404 252.392 324.213C252.63 324.021 252.749 323.729 252.749 323.334C252.749 322.623 252.241 322.268 251.226 322.268H250.101ZM264.122 321.705C264.122 323.123 263.771 324.213 263.067 324.975C262.364 325.736 261.357 326.117 260.044 326.117C258.732 326.117 257.724 325.736 257.021 324.975C256.317 324.213 255.966 323.119 255.966 321.693C255.966 320.268 256.317 319.18 257.021 318.43C257.728 317.676 258.739 317.299 260.056 317.299C261.372 317.299 262.378 317.678 263.073 318.436C263.773 319.193 264.122 320.283 264.122 321.705ZM257.87 321.705C257.87 322.662 258.052 323.383 258.415 323.867C258.778 324.352 259.321 324.594 260.044 324.594C261.493 324.594 262.218 323.631 262.218 321.705C262.218 319.775 261.497 318.811 260.056 318.811C259.333 318.811 258.788 319.055 258.421 319.543C258.054 320.027 257.87 320.748 257.87 321.705ZM273.673 321.705C273.673 323.123 273.321 324.213 272.618 324.975C271.915 325.736 270.907 326.117 269.595 326.117C268.282 326.117 267.275 325.736 266.571 324.975C265.868 324.213 265.517 323.119 265.517 321.693C265.517 320.268 265.868 319.18 266.571 318.43C267.278 317.676 268.29 317.299 269.607 317.299C270.923 317.299 271.929 317.678 272.624 318.436C273.323 319.193 273.673 320.283 273.673 321.705ZM267.421 321.705C267.421 322.662 267.603 323.383 267.966 323.867C268.329 324.352 268.872 324.594 269.595 324.594C271.044 324.594 271.769 323.631 271.769 321.705C271.769 319.775 271.048 318.811 269.607 318.811C268.884 318.811 268.339 319.055 267.972 319.543C267.605 320.027 267.421 320.748 267.421 321.705ZM282.339 326H280.276L278.032 322.391L277.265 322.941V326H275.448V317.434H277.265V321.354L277.98 320.346L280.3 317.434H282.316L279.327 321.225L282.339 326ZM294.134 326H291.825L288.099 319.52H288.046C288.12 320.664 288.157 321.48 288.157 321.969V326H286.534V317.434H288.825L292.546 323.85H292.587C292.528 322.736 292.499 321.949 292.499 321.488V317.434H294.134V326ZM304.071 321.705C304.071 323.123 303.72 324.213 303.017 324.975C302.314 325.736 301.306 326.117 299.993 326.117C298.681 326.117 297.673 325.736 296.97 324.975C296.267 324.213 295.915 323.119 295.915 321.693C295.915 320.268 296.267 319.18 296.97 318.43C297.677 317.676 298.689 317.299 300.005 317.299C301.321 317.299 302.327 317.678 303.023 318.436C303.722 319.193 304.071 320.283 304.071 321.705ZM297.819 321.705C297.819 322.662 298.001 323.383 298.364 323.867C298.728 324.352 299.271 324.594 299.993 324.594C301.442 324.594 302.167 323.631 302.167 321.705C302.167 319.775 301.446 318.811 300.005 318.811C299.282 318.811 298.737 319.055 298.37 319.543C298.003 320.027 297.819 320.748 297.819 321.705ZM314.191 326H312.122L310.962 321.5C310.919 321.34 310.845 321.01 310.739 320.51C310.638 320.006 310.579 319.668 310.564 319.496C310.54 319.707 310.482 320.047 310.388 320.516C310.294 320.98 310.222 321.312 310.171 321.512L309.017 326H306.954L304.769 317.434H306.556L307.651 322.109C307.843 322.973 307.982 323.721 308.067 324.354C308.091 324.131 308.144 323.787 308.226 323.322C308.312 322.854 308.392 322.49 308.466 322.232L309.714 317.434H311.431L312.679 322.232C312.733 322.447 312.802 322.775 312.884 323.217C312.966 323.658 313.028 324.037 313.071 324.354C313.11 324.049 313.173 323.67 313.259 323.217C313.345 322.76 313.423 322.391 313.493 322.109L314.583 317.434H316.37L314.191 326Z" fill="white"/>
<rect x="288" y="221" width="276.801" height="60" rx="5" fill="#E5E5E5"/>
<path d="M537.083 255.25C537.239 255.445 537.473 255.523 537.747 255.523C537.981 255.523 538.216 255.445 538.411 255.25L543.723 249.938C543.88 249.781 543.997 249.547 543.997 249.273C543.997 249.039 543.88 248.805 543.723 248.609L542.825 247.75C542.63 247.594 542.395 247.477 542.161 247.477C541.888 247.477 541.653 247.594 541.497 247.75L537.747 251.5L533.997 247.75C533.802 247.594 533.567 247.477 533.333 247.477C533.059 247.477 532.825 247.594 532.669 247.75L531.77 248.609C531.575 248.805 531.497 249.039 531.497 249.273C531.497 249.547 531.575 249.781 531.77 249.938L537.083 255.25Z" fill="#333333" fill-opacity="0.5"/>
<path d="M311.725 256H310.562V247.038H307.397V246.006H314.89V247.038H311.725V256ZM317.364 256H316.229V248.508H317.364V256ZM316.134 246.478C316.134 246.218 316.198 246.029 316.325 245.91C316.453 245.787 316.612 245.726 316.804 245.726C316.986 245.726 317.143 245.787 317.275 245.91C317.408 246.033 317.474 246.222 317.474 246.478C317.474 246.733 317.408 246.924 317.275 247.052C317.143 247.175 316.986 247.236 316.804 247.236C316.612 247.236 316.453 247.175 316.325 247.052C316.198 246.924 316.134 246.733 316.134 246.478ZM329.32 256V251.126C329.32 250.529 329.193 250.082 328.938 249.786C328.682 249.485 328.286 249.335 327.748 249.335C327.042 249.335 326.52 249.538 326.183 249.943C325.845 250.349 325.677 250.973 325.677 251.816V256H324.542V251.126C324.542 250.529 324.414 250.082 324.159 249.786C323.904 249.485 323.505 249.335 322.963 249.335C322.252 249.335 321.73 249.549 321.397 249.978C321.069 250.401 320.905 251.099 320.905 252.069V256H319.771V248.508H320.693L320.878 249.533H320.933C321.147 249.169 321.448 248.884 321.835 248.679C322.227 248.474 322.664 248.371 323.147 248.371C324.319 248.371 325.084 248.795 325.444 249.643H325.499C325.722 249.251 326.046 248.941 326.47 248.713C326.894 248.485 327.377 248.371 327.919 248.371C328.767 248.371 329.4 248.59 329.819 249.027C330.243 249.46 330.455 250.155 330.455 251.112V256H329.32ZM335.965 256.137C334.857 256.137 333.982 255.799 333.34 255.125C332.702 254.451 332.383 253.514 332.383 252.315C332.383 251.108 332.679 250.148 333.271 249.438C333.868 248.727 334.668 248.371 335.671 248.371C336.61 248.371 337.353 248.681 337.899 249.301C338.446 249.916 338.72 250.729 338.72 251.741V252.459H333.559C333.581 253.339 333.802 254.006 334.222 254.462C334.646 254.918 335.24 255.146 336.006 255.146C336.812 255.146 337.61 254.977 338.398 254.64V255.651C337.997 255.825 337.617 255.948 337.257 256.021C336.901 256.098 336.471 256.137 335.965 256.137ZM335.657 249.321C335.056 249.321 334.575 249.517 334.215 249.909C333.859 250.301 333.65 250.843 333.586 251.536H337.503C337.503 250.821 337.343 250.274 337.024 249.896C336.705 249.513 336.25 249.321 335.657 249.321Z" fill="#333333" fill-opacity="0.5"/>
<rect y="221" width="276.801" height="60" rx="5" fill="#E5E5E5"/>
<path d="M29.3516 250.907C29.3516 252.557 28.9027 253.819 28.0049 254.694C27.1117 255.565 25.8242 256 24.1426 256H21.374V246.006H24.4365C25.9906 246.006 27.1982 246.437 28.0596 247.298C28.9209 248.159 29.3516 249.362 29.3516 250.907ZM28.1211 250.948C28.1211 249.645 27.793 248.663 27.1367 248.002C26.485 247.341 25.5143 247.011 24.2246 247.011H22.5361V254.995H23.9512C25.3366 254.995 26.3779 254.656 27.0752 253.977C27.7725 253.293 28.1211 252.284 28.1211 250.948ZM36.0234 256L35.7979 254.934H35.7432C35.3695 255.403 34.9958 255.722 34.6221 255.891C34.2529 256.055 33.7904 256.137 33.2344 256.137C32.4915 256.137 31.9082 255.945 31.4844 255.562C31.0651 255.18 30.8555 254.635 30.8555 253.929C30.8555 252.416 32.0654 251.623 34.4854 251.55L35.7568 251.509V251.044C35.7568 250.456 35.6292 250.023 35.374 249.745C35.1234 249.463 34.7201 249.321 34.1641 249.321C33.5397 249.321 32.8333 249.513 32.0449 249.896L31.6963 249.027C32.0654 248.827 32.4688 248.67 32.9062 248.556C33.3483 248.442 33.7904 248.385 34.2324 248.385C35.1257 248.385 35.7865 248.583 36.2148 248.979C36.6478 249.376 36.8643 250.012 36.8643 250.887V256H36.0234ZM33.46 255.2C34.1663 255.2 34.7201 255.007 35.1211 254.619C35.5267 254.232 35.7295 253.689 35.7295 252.992V252.315L34.5947 252.363C33.6924 252.395 33.0407 252.536 32.6396 252.787C32.2432 253.033 32.0449 253.418 32.0449 253.942C32.0449 254.353 32.168 254.665 32.4141 254.879C32.6647 255.093 33.0133 255.2 33.46 255.2ZM41.6289 255.2C41.8294 255.2 42.0231 255.187 42.21 255.159C42.3968 255.127 42.5449 255.095 42.6543 255.063V255.932C42.5312 255.991 42.349 256.039 42.1074 256.075C41.8704 256.116 41.6562 256.137 41.4648 256.137C40.0156 256.137 39.291 255.373 39.291 253.847V249.39H38.2178V248.843L39.291 248.371L39.7695 246.771H40.4258V248.508H42.5996V249.39H40.4258V253.799C40.4258 254.25 40.5329 254.596 40.7471 254.838C40.9613 255.079 41.2552 255.2 41.6289 255.2ZM47.3232 256.137C46.2158 256.137 45.3408 255.799 44.6982 255.125C44.0602 254.451 43.7412 253.514 43.7412 252.315C43.7412 251.108 44.0374 250.148 44.6299 249.438C45.2269 248.727 46.0267 248.371 47.0293 248.371C47.9681 248.371 48.7109 248.681 49.2578 249.301C49.8047 249.916 50.0781 250.729 50.0781 251.741V252.459H44.917C44.9398 253.339 45.1608 254.006 45.5801 254.462C46.0039 254.918 46.5986 255.146 47.3643 255.146C48.1709 255.146 48.9684 254.977 49.7568 254.64V255.651C49.3558 255.825 48.9753 255.948 48.6152 256.021C48.2598 256.098 47.8291 256.137 47.3232 256.137ZM47.0156 249.321C46.4141 249.321 45.9333 249.517 45.5732 249.909C45.2178 250.301 45.0081 250.843 44.9443 251.536H48.8613C48.8613 250.821 48.7018 250.274 48.3828 249.896C48.0638 249.513 47.6081 249.321 47.0156 249.321ZM55.0137 252.165C55.0137 250.957 55.1891 249.827 55.54 248.774C55.8955 247.722 56.4059 246.799 57.0713 246.006H58.1787C57.5225 246.885 57.028 247.852 56.6953 248.904C56.3672 249.957 56.2031 251.039 56.2031 252.151C56.2031 253.245 56.3717 254.314 56.709 255.357C57.0462 256.401 57.5316 257.354 58.165 258.215H57.0713C56.4014 257.44 55.891 256.535 55.54 255.501C55.1891 254.466 55.0137 253.354 55.0137 252.165ZM69.3486 256V251.126C69.3486 250.529 69.221 250.082 68.9658 249.786C68.7106 249.485 68.3141 249.335 67.7764 249.335C67.07 249.335 66.5482 249.538 66.2109 249.943C65.8737 250.349 65.7051 250.973 65.7051 251.816V256H64.5703V251.126C64.5703 250.529 64.4427 250.082 64.1875 249.786C63.9323 249.485 63.5335 249.335 62.9912 249.335C62.2803 249.335 61.7585 249.549 61.4258 249.978C61.0977 250.401 60.9336 251.099 60.9336 252.069V256H59.7988V248.508H60.7217L60.9062 249.533H60.9609C61.1751 249.169 61.4759 248.884 61.8633 248.679C62.2552 248.474 62.6927 248.371 63.1758 248.371C64.347 248.371 65.1126 248.795 65.4727 249.643H65.5273C65.7507 249.251 66.0742 248.941 66.498 248.713C66.9219 248.485 67.4049 248.371 67.9473 248.371C68.7949 248.371 69.4284 248.59 69.8477 249.027C70.2715 249.46 70.4834 250.155 70.4834 251.112V256H69.3486ZM82.3779 256V251.126C82.3779 250.529 82.2503 250.082 81.9951 249.786C81.7399 249.485 81.3434 249.335 80.8057 249.335C80.0993 249.335 79.5775 249.538 79.2402 249.943C78.903 250.349 78.7344 250.973 78.7344 251.816V256H77.5996V251.126C77.5996 250.529 77.472 250.082 77.2168 249.786C76.9616 249.485 76.5628 249.335 76.0205 249.335C75.3096 249.335 74.7878 249.549 74.4551 249.978C74.127 250.401 73.9629 251.099 73.9629 252.069V256H72.8281V248.508H73.751L73.9355 249.533H73.9902C74.2044 249.169 74.5052 248.884 74.8926 248.679C75.2845 248.474 75.722 248.371 76.2051 248.371C77.3763 248.371 78.1419 248.795 78.502 249.643H78.5566C78.7799 249.251 79.1035 248.941 79.5273 248.713C79.9512 248.485 80.4342 248.371 80.9766 248.371C81.8242 248.371 82.4577 248.59 82.877 249.027C83.3008 249.46 83.5127 250.155 83.5127 251.112V256H82.3779ZM89.6514 246.006L85.9258 256H84.791L88.5166 246.006H89.6514ZM96.0977 254.995H96.0361C95.512 255.756 94.7282 256.137 93.6846 256.137C92.7048 256.137 91.9414 255.802 91.3945 255.132C90.8522 254.462 90.5811 253.509 90.5811 252.274C90.5811 251.039 90.8545 250.08 91.4014 249.396C91.9482 248.713 92.7093 248.371 93.6846 248.371C94.7008 248.371 95.4801 248.74 96.0225 249.479H96.1113L96.0635 248.938L96.0361 248.412V245.363H97.1709V256H96.248L96.0977 254.995ZM93.8281 255.187C94.6029 255.187 95.1634 254.977 95.5098 254.558C95.8607 254.134 96.0361 253.452 96.0361 252.514V252.274C96.0361 251.213 95.8584 250.456 95.5029 250.005C95.152 249.549 94.5892 249.321 93.8145 249.321C93.1491 249.321 92.6387 249.581 92.2832 250.101C91.9323 250.616 91.7568 251.345 91.7568 252.288C91.7568 253.245 91.9323 253.967 92.2832 254.455C92.6341 254.943 93.1491 255.187 93.8281 255.187ZM104.684 254.995H104.622C104.098 255.756 103.314 256.137 102.271 256.137C101.291 256.137 100.527 255.802 99.9805 255.132C99.4382 254.462 99.167 253.509 99.167 252.274C99.167 251.039 99.4404 250.08 99.9873 249.396C100.534 248.713 101.295 248.371 102.271 248.371C103.287 248.371 104.066 248.74 104.608 249.479H104.697L104.649 248.938L104.622 248.412V245.363H105.757V256H104.834L104.684 254.995ZM102.414 255.187C103.189 255.187 103.749 254.977 104.096 254.558C104.447 254.134 104.622 253.452 104.622 252.514V252.274C104.622 251.213 104.444 250.456 104.089 250.005C103.738 249.549 103.175 249.321 102.4 249.321C101.735 249.321 101.225 249.581 100.869 250.101C100.518 250.616 100.343 251.345 100.343 252.288C100.343 253.245 100.518 253.967 100.869 254.455C101.22 254.943 101.735 255.187 102.414 255.187ZM110.549 252.165C110.549 253.364 110.371 254.48 110.016 255.515C109.665 256.549 109.157 257.449 108.491 258.215H107.397C108.031 257.358 108.516 256.408 108.854 255.364C109.191 254.316 109.359 253.245 109.359 252.151C109.359 251.039 109.193 249.957 108.86 248.904C108.532 247.852 108.04 246.885 107.384 246.006H108.491C109.161 246.803 109.672 247.731 110.022 248.788C110.373 249.841 110.549 250.966 110.549 252.165Z" fill="#333333" fill-opacity="0.5"/>
<rect x="288.199" y="151" width="276.801" height="60" rx="5" fill="#E5E5E5"/>
<path d="M537.083 185.25C537.239 185.445 537.473 185.523 537.747 185.523C537.981 185.523 538.216 185.445 538.411 185.25L543.723 179.938C543.88 179.781 543.997 179.547 543.997 179.273C543.997 179.039 543.88 178.805 543.723 178.609L542.825 177.75C542.63 177.594 542.395 177.477 542.161 177.477C541.888 177.477 541.653 177.594 541.497 177.75L537.747 181.5L533.997 177.75C533.802 177.594 533.567 177.477 533.333 177.477C533.059 177.477 532.825 177.594 532.669 177.75L531.77 178.609C531.575 178.805 531.497 179.039 531.497 179.273C531.497 179.547 531.575 179.781 531.77 179.938L537.083 185.25Z" fill="#333333" fill-opacity="0.5"/>
<path d="M314.985 178.918C314.985 179.93 314.639 180.709 313.946 181.256C313.258 181.798 312.271 182.069 310.986 182.069H309.811V186H308.648V176.006H311.239C313.737 176.006 314.985 176.977 314.985 178.918ZM309.811 181.071H310.856C311.886 181.071 312.632 180.905 313.092 180.572C313.552 180.24 313.782 179.706 313.782 178.973C313.782 178.312 313.566 177.82 313.133 177.496C312.7 177.173 312.025 177.011 311.109 177.011H309.811V181.071ZM320.078 186.137C318.971 186.137 318.096 185.799 317.453 185.125C316.815 184.451 316.496 183.514 316.496 182.315C316.496 181.108 316.792 180.148 317.385 179.438C317.982 178.727 318.782 178.371 319.784 178.371C320.723 178.371 321.466 178.681 322.013 179.301C322.56 179.916 322.833 180.729 322.833 181.741V182.459H317.672C317.695 183.339 317.916 184.006 318.335 184.462C318.759 184.918 319.354 185.146 320.119 185.146C320.926 185.146 321.723 184.977 322.512 184.64V185.651C322.111 185.825 321.73 185.948 321.37 186.021C321.015 186.098 320.584 186.137 320.078 186.137ZM319.771 179.321C319.169 179.321 318.688 179.517 318.328 179.909C317.973 180.301 317.763 180.843 317.699 181.536H321.616C321.616 180.821 321.457 180.274 321.138 179.896C320.819 179.513 320.363 179.321 319.771 179.321ZM331.241 182.247C331.241 183.468 330.934 184.423 330.318 185.111C329.703 185.795 328.853 186.137 327.769 186.137C327.099 186.137 326.504 185.979 325.984 185.665C325.465 185.351 325.064 184.899 324.781 184.312C324.499 183.724 324.357 183.035 324.357 182.247C324.357 181.026 324.663 180.076 325.273 179.396C325.884 178.713 326.732 178.371 327.816 178.371C328.865 178.371 329.696 178.72 330.312 179.417C330.931 180.114 331.241 181.058 331.241 182.247ZM325.533 182.247C325.533 183.204 325.725 183.933 326.107 184.435C326.49 184.936 327.053 185.187 327.796 185.187C328.539 185.187 329.102 184.938 329.484 184.441C329.872 183.94 330.065 183.209 330.065 182.247C330.065 181.295 329.872 180.572 329.484 180.08C329.102 179.583 328.534 179.335 327.782 179.335C327.039 179.335 326.479 179.579 326.101 180.066C325.722 180.554 325.533 181.281 325.533 182.247ZM336.724 186.137C336.236 186.137 335.789 186.048 335.384 185.87C334.983 185.688 334.646 185.41 334.372 185.036H334.29C334.345 185.474 334.372 185.888 334.372 186.28V189.363H333.237V178.508H334.16L334.317 179.533H334.372C334.664 179.123 335.003 178.827 335.391 178.645C335.778 178.462 336.222 178.371 336.724 178.371C337.717 178.371 338.483 178.711 339.021 179.39C339.563 180.069 339.834 181.021 339.834 182.247C339.834 183.478 339.558 184.435 339.007 185.118C338.46 185.797 337.699 186.137 336.724 186.137ZM336.56 179.335C335.794 179.335 335.24 179.547 334.898 179.971C334.557 180.395 334.381 181.069 334.372 181.994V182.247C334.372 183.3 334.548 184.054 334.898 184.51C335.249 184.961 335.812 185.187 336.587 185.187C337.234 185.187 337.74 184.924 338.104 184.4C338.474 183.876 338.658 183.154 338.658 182.233C338.658 181.299 338.474 180.584 338.104 180.087C337.74 179.586 337.225 179.335 336.56 179.335ZM342.958 186H341.823V175.363H342.958V186ZM348.529 186.137C347.422 186.137 346.547 185.799 345.904 185.125C345.266 184.451 344.947 183.514 344.947 182.315C344.947 181.108 345.243 180.148 345.836 179.438C346.433 178.727 347.233 178.371 348.235 178.371C349.174 178.371 349.917 178.681 350.464 179.301C351.011 179.916 351.284 180.729 351.284 181.741V182.459H346.123C346.146 183.339 346.367 184.006 346.786 184.462C347.21 184.918 347.805 185.146 348.57 185.146C349.377 185.146 350.174 184.977 350.963 184.64V185.651C350.562 185.825 350.181 185.948 349.821 186.021C349.466 186.098 349.035 186.137 348.529 186.137ZM348.222 179.321C347.62 179.321 347.139 179.517 346.779 179.909C346.424 180.301 346.214 180.843 346.15 181.536H350.067C350.067 180.821 349.908 180.274 349.589 179.896C349.27 179.513 348.814 179.321 348.222 179.321Z" fill="#333333" fill-opacity="0.5"/>
<rect y="151" width="276.801" height="60" rx="5" fill="#E5E5E5"/>
<path d="M27.7109 178.918C27.7109 179.93 27.3646 180.709 26.6719 181.256C25.9837 181.798 24.9971 182.069 23.7119 182.069H22.5361V186H21.374V176.006H23.9648C26.4622 176.006 27.7109 176.977 27.7109 178.918ZM22.5361 181.071H23.582C24.612 181.071 25.3571 180.905 25.8174 180.572C26.2777 180.24 26.5078 179.706 26.5078 178.973C26.5078 178.312 26.2913 177.82 25.8584 177.496C25.4255 177.173 24.751 177.011 23.835 177.011H22.5361V181.071ZM34.7656 186V181.153C34.7656 180.543 34.6266 180.087 34.3486 179.786C34.0706 179.485 33.6354 179.335 33.043 179.335C32.2546 179.335 31.6781 179.549 31.3135 179.978C30.9535 180.406 30.7734 181.108 30.7734 182.083V186H29.6387V175.363H30.7734V178.583C30.7734 178.97 30.7552 179.292 30.7188 179.547H30.7871C31.0104 179.187 31.3271 178.904 31.7373 178.699C32.152 178.49 32.6237 178.385 33.1523 178.385C34.0684 178.385 34.7542 178.604 35.21 179.041C35.6702 179.474 35.9004 180.164 35.9004 181.112V186H34.7656ZM44.7051 182.247C44.7051 183.468 44.3975 184.423 43.7822 185.111C43.167 185.795 42.3171 186.137 41.2324 186.137C40.5625 186.137 39.9678 185.979 39.4482 185.665C38.9287 185.351 38.5277 184.899 38.2451 184.312C37.9626 183.724 37.8213 183.035 37.8213 182.247C37.8213 181.026 38.1266 180.076 38.7373 179.396C39.348 178.713 40.1956 178.371 41.2803 178.371C42.3285 178.371 43.1602 178.72 43.7754 179.417C44.3952 180.114 44.7051 181.058 44.7051 182.247ZM38.9971 182.247C38.9971 183.204 39.1885 183.933 39.5713 184.435C39.9541 184.936 40.5169 185.187 41.2598 185.187C42.0026 185.187 42.5654 184.938 42.9482 184.441C43.3356 183.94 43.5293 183.209 43.5293 182.247C43.5293 181.295 43.3356 180.572 42.9482 180.08C42.5654 179.583 41.998 179.335 41.2461 179.335C40.5033 179.335 39.9427 179.579 39.5645 180.066C39.1862 180.554 38.9971 181.281 38.9971 182.247ZM51.8281 186V181.153C51.8281 180.543 51.6891 180.087 51.4111 179.786C51.1331 179.485 50.6979 179.335 50.1055 179.335C49.3216 179.335 48.7474 179.547 48.3828 179.971C48.0182 180.395 47.8359 181.094 47.8359 182.069V186H46.7012V178.508H47.624L47.8086 179.533H47.8633C48.0957 179.164 48.4215 178.879 48.8408 178.679C49.2601 178.474 49.7272 178.371 50.2422 178.371C51.1445 178.371 51.8236 178.59 52.2793 179.027C52.735 179.46 52.9629 180.155 52.9629 181.112V186H51.8281ZM58.4658 186.137C57.3584 186.137 56.4834 185.799 55.8408 185.125C55.2028 184.451 54.8838 183.514 54.8838 182.315C54.8838 181.108 55.18 180.148 55.7725 179.438C56.3695 178.727 57.1693 178.371 58.1719 178.371C59.1107 178.371 59.8535 178.681 60.4004 179.301C60.9473 179.916 61.2207 180.729 61.2207 181.741V182.459H56.0596C56.0824 183.339 56.3034 184.006 56.7227 184.462C57.1465 184.918 57.7412 185.146 58.5068 185.146C59.3135 185.146 60.111 184.977 60.8994 184.64V185.651C60.4984 185.825 60.1178 185.948 59.7578 186.021C59.4023 186.098 58.9717 186.137 58.4658 186.137ZM58.1582 179.321C57.5566 179.321 57.0758 179.517 56.7158 179.909C56.3604 180.301 56.1507 180.843 56.0869 181.536H60.0039C60.0039 180.821 59.8444 180.274 59.5254 179.896C59.2064 179.513 58.7507 179.321 58.1582 179.321Z" fill="#333333" fill-opacity="0.5"/>
<rect x="287" y="81" width="277.5" height="60" rx="5" fill="#E5E5E5"/>
<path d="M313.945 116H308.374V106.006H313.945V107.038H309.536V110.258H313.679V111.283H309.536V114.961H313.945V116ZM325.546 116V111.126C325.546 110.529 325.418 110.082 325.163 109.786C324.908 109.485 324.511 109.335 323.974 109.335C323.267 109.335 322.745 109.538 322.408 109.943C322.071 110.349 321.902 110.973 321.902 111.816V116H320.768V111.126C320.768 110.529 320.64 110.082 320.385 109.786C320.13 109.485 319.731 109.335 319.188 109.335C318.478 109.335 317.956 109.549 317.623 109.978C317.295 110.401 317.131 111.099 317.131 112.069V116H315.996V108.508H316.919L317.104 109.533H317.158C317.372 109.169 317.673 108.884 318.061 108.679C318.452 108.474 318.89 108.371 319.373 108.371C320.544 108.371 321.31 108.795 321.67 109.643H321.725C321.948 109.251 322.271 108.941 322.695 108.713C323.119 108.485 323.602 108.371 324.145 108.371C324.992 108.371 325.626 108.59 326.045 109.027C326.469 109.46 326.681 110.155 326.681 111.112V116H325.546ZM333.633 116L333.407 114.934H333.353C332.979 115.403 332.605 115.722 332.231 115.891C331.862 116.055 331.4 116.137 330.844 116.137C330.101 116.137 329.518 115.945 329.094 115.562C328.674 115.18 328.465 114.635 328.465 113.929C328.465 112.416 329.675 111.623 332.095 111.55L333.366 111.509V111.044C333.366 110.456 333.239 110.023 332.983 109.745C332.733 109.463 332.329 109.321 331.773 109.321C331.149 109.321 330.443 109.513 329.654 109.896L329.306 109.027C329.675 108.827 330.078 108.67 330.516 108.556C330.958 108.442 331.4 108.385 331.842 108.385C332.735 108.385 333.396 108.583 333.824 108.979C334.257 109.376 334.474 110.012 334.474 110.887V116H333.633ZM331.069 115.2C331.776 115.2 332.329 115.007 332.73 114.619C333.136 114.232 333.339 113.689 333.339 112.992V112.315L332.204 112.363C331.302 112.395 330.65 112.536 330.249 112.787C329.853 113.033 329.654 113.418 329.654 113.942C329.654 114.353 329.777 114.665 330.023 114.879C330.274 115.093 330.623 115.2 331.069 115.2ZM337.953 116H336.818V108.508H337.953V116ZM336.723 106.478C336.723 106.218 336.786 106.029 336.914 105.91C337.042 105.787 337.201 105.726 337.393 105.726C337.575 105.726 337.732 105.787 337.864 105.91C337.996 106.033 338.062 106.222 338.062 106.478C338.062 106.733 337.996 106.924 337.864 107.052C337.732 107.175 337.575 107.236 337.393 107.236C337.201 107.236 337.042 107.175 336.914 107.052C336.786 106.924 336.723 106.733 336.723 106.478ZM341.494 116H340.359V105.363H341.494V116Z" fill="#333333" fill-opacity="0.5"/>
<rect y="81" width="277" height="60" rx="5" fill="#E5E5E5"/>
<path d="M29.1807 116H27.8545L22.3926 107.612H22.3379C22.4108 108.597 22.4473 109.499 22.4473 110.319V116H21.374V106.006H22.6865L28.1348 114.359H28.1895C28.1803 114.236 28.1598 113.842 28.1279 113.177C28.096 112.507 28.0846 112.028 28.0938 111.741V106.006H29.1807V116ZM36.3652 116L36.1396 114.934H36.085C35.7113 115.403 35.3376 115.722 34.9639 115.891C34.5947 116.055 34.1322 116.137 33.5762 116.137C32.8333 116.137 32.25 115.945 31.8262 115.562C31.4069 115.18 31.1973 114.635 31.1973 113.929C31.1973 112.416 32.4072 111.623 34.8271 111.55L36.0986 111.509V111.044C36.0986 110.456 35.971 110.023 35.7158 109.745C35.4652 109.463 35.0618 109.321 34.5059 109.321C33.8815 109.321 33.1751 109.513 32.3867 109.896L32.0381 109.027C32.4072 108.827 32.8105 108.67 33.248 108.556C33.6901 108.442 34.1322 108.385 34.5742 108.385C35.4674 108.385 36.1283 108.583 36.5566 108.979C36.9896 109.376 37.2061 110.012 37.2061 110.887V116H36.3652ZM33.8018 115.2C34.5081 115.2 35.0618 115.007 35.4629 114.619C35.8685 114.232 36.0713 113.689 36.0713 112.992V112.315L34.9365 112.363C34.0342 112.395 33.3825 112.536 32.9814 112.787C32.585 113.033 32.3867 113.418 32.3867 113.942C32.3867 114.353 32.5098 114.665 32.7559 114.879C33.0065 115.093 33.3551 115.2 33.8018 115.2ZM49.1006 116V111.126C49.1006 110.529 48.973 110.082 48.7178 109.786C48.4626 109.485 48.0661 109.335 47.5283 109.335C46.8219 109.335 46.3001 109.538 45.9629 109.943C45.6257 110.349 45.457 110.973 45.457 111.816V116H44.3223V111.126C44.3223 110.529 44.1947 110.082 43.9395 109.786C43.6842 109.485 43.2855 109.335 42.7432 109.335C42.0322 109.335 41.5104 109.549 41.1777 109.978C40.8496 110.401 40.6855 111.099 40.6855 112.069V116H39.5508V108.508H40.4736L40.6582 109.533H40.7129C40.9271 109.169 41.2279 108.884 41.6152 108.679C42.0072 108.474 42.4447 108.371 42.9277 108.371C44.099 108.371 44.8646 108.795 45.2246 109.643H45.2793C45.5026 109.251 45.8262 108.941 46.25 108.713C46.6738 108.485 47.1569 108.371 47.6992 108.371C48.5469 108.371 49.1803 108.59 49.5996 109.027C50.0234 109.46 50.2354 110.155 50.2354 111.112V116H49.1006ZM55.7451 116.137C54.6377 116.137 53.7627 115.799 53.1201 115.125C52.4821 114.451 52.1631 113.514 52.1631 112.315C52.1631 111.108 52.4593 110.148 53.0518 109.438C53.6488 108.727 54.4486 108.371 55.4512 108.371C56.39 108.371 57.1328 108.681 57.6797 109.301C58.2266 109.916 58.5 110.729 58.5 111.741V112.459H53.3389C53.3617 113.339 53.5827 114.006 54.002 114.462C54.4258 114.918 55.0205 115.146 55.7861 115.146C56.5928 115.146 57.3903 114.977 58.1787 114.64V115.651C57.7777 115.825 57.3971 115.948 57.0371 116.021C56.6816 116.098 56.251 116.137 55.7451 116.137ZM55.4375 109.321C54.8359 109.321 54.3551 109.517 53.9951 109.909C53.6396 110.301 53.43 110.843 53.3662 111.536H57.2832C57.2832 110.821 57.1237 110.274 56.8047 109.896C56.4857 109.513 56.0299 109.321 55.4375 109.321Z" fill="#333333" fill-opacity="0.5"/>
<rect x="252" y="56" width="60.9081" height="5" rx="2.5" fill="#E8C300"/>
<path d="M167.627 18.9883C167.533 19.0117 167.498 19.1289 167.521 19.3398C167.545 19.5273 167.592 19.6211 167.662 19.6211C169.514 20.043 170.967 20.8398 172.021 22.0117C173.076 23.1836 173.604 24.625 173.604 26.3359C173.604 27.6953 173.428 28.8672 173.076 29.8516C172.725 30.8125 172.162 31.5977 171.389 32.207C170.615 32.8164 169.607 33.2617 168.365 33.543C167.146 33.8242 165.67 33.9648 163.936 33.9648H155.674C155.088 33.9648 154.584 33.7539 154.162 33.332C153.74 32.9102 153.529 32.4062 153.529 31.8203V9.74219C153.529 9.15625 153.74 8.65234 154.162 8.23047C154.584 7.80859 155.088 7.59766 155.674 7.59766H162.6C164.334 7.59766 165.811 7.72656 167.029 7.98438C168.271 8.24219 169.279 8.65234 170.053 9.21484C170.826 9.75391 171.389 10.4687 171.74 11.3594C172.092 12.2266 172.268 13.293 172.268 14.5586C172.268 15.6133 171.857 16.5273 171.037 17.3008C170.217 18.0508 169.08 18.6133 167.627 18.9883ZM158.029 17.0898C158.029 17.6758 158.24 18.1797 158.662 18.6016C159.084 19.0234 159.588 19.2344 160.174 19.2344H163.092C164.451 19.2344 165.541 18.8477 166.361 18.0742C167.182 17.2773 167.592 16.2227 167.592 14.9102C167.592 12.4727 167.217 10.7383 166.467 9.70703C165.717 8.67578 164.439 8.16016 162.635 8.16016H160.174C159.588 8.16016 159.084 8.37109 158.662 8.79297C158.24 9.21484 158.029 9.71875 158.029 10.3047V17.0898ZM158.029 31.3281C158.029 31.9141 158.24 32.418 158.662 32.8398C159.084 33.2617 159.588 33.4727 160.174 33.4727H163.76C165.564 33.4727 166.842 32.8984 167.592 31.75C168.365 30.5781 168.752 28.6211 168.752 25.8789C168.752 24.0273 168.365 22.5391 167.592 21.4141C166.818 20.2891 165.799 19.7266 164.533 19.7266H160.174C159.588 19.7266 159.084 19.9375 158.662 20.3594C158.24 20.7812 158.029 21.2852 158.029 21.8711V31.3281ZM181.654 20.8164C181.654 22.7617 181.83 24.5312 182.182 26.125C182.557 27.7188 183.072 29.0781 183.729 30.2031C184.385 31.3281 185.17 32.207 186.084 32.8398C187.021 33.4492 188.053 33.7539 189.178 33.7539C190.303 33.7539 191.322 33.4492 192.236 32.8398C193.174 32.207 193.971 31.3281 194.627 30.2031C195.283 29.0781 195.787 27.7188 196.139 26.125C196.514 24.5312 196.701 22.7617 196.701 20.8164C196.701 18.9648 196.502 17.2539 196.104 15.6836C195.729 14.1133 195.201 12.7539 194.521 11.6055C193.865 10.4336 193.08 9.51953 192.166 8.86328C191.252 8.20703 190.256 7.87891 189.178 7.87891C188.1 7.87891 187.104 8.20703 186.189 8.86328C185.275 9.51953 184.479 10.4336 183.799 11.6055C183.143 12.7539 182.615 14.1133 182.217 15.6836C181.842 17.2539 181.654 18.9648 181.654 20.8164ZM176.838 20.8164C176.838 18.8945 177.143 17.1133 177.752 15.4727C178.385 13.8086 179.252 12.3789 180.354 11.1836C181.479 9.96484 182.791 9.01563 184.291 8.33594C185.791 7.65625 187.42 7.31641 189.178 7.31641C190.936 7.31641 192.564 7.65625 194.064 8.33594C195.564 9.01563 196.865 9.96484 197.967 11.1836C199.092 12.3789 199.959 13.8086 200.568 15.4727C201.201 17.1133 201.518 18.8945 201.518 20.8164C201.518 22.832 201.225 24.6719 200.639 26.3359C200.053 28 199.221 29.4297 198.143 30.625C197.064 31.7969 195.764 32.7109 194.24 33.3672C192.717 34 191.029 34.3164 189.178 34.3164C187.326 34.3164 185.639 34 184.115 33.3672C182.592 32.7109 181.291 31.7969 180.213 30.625C179.135 29.4297 178.303 28 177.717 26.3359C177.131 24.6719 176.838 22.832 176.838 20.8164ZM210.271 20.8164C210.271 22.7617 210.447 24.5312 210.799 26.125C211.174 27.7188 211.689 29.0781 212.346 30.2031C213.002 31.3281 213.787 32.207 214.701 32.8398C215.639 33.4492 216.67 33.7539 217.795 33.7539C218.92 33.7539 219.939 33.4492 220.854 32.8398C221.791 32.207 222.588 31.3281 223.244 30.2031C223.9 29.0781 224.404 27.7188 224.756 26.125C225.131 24.5312 225.318 22.7617 225.318 20.8164C225.318 18.9648 225.119 17.2539 224.721 15.6836C224.346 14.1133 223.818 12.7539 223.139 11.6055C222.482 10.4336 221.697 9.51953 220.783 8.86328C219.869 8.20703 218.873 7.87891 217.795 7.87891C216.717 7.87891 215.721 8.20703 214.807 8.86328C213.893 9.51953 213.096 10.4336 212.416 11.6055C211.76 12.7539 211.232 14.1133 210.834 15.6836C210.459 17.2539 210.271 18.9648 210.271 20.8164ZM205.455 20.8164C205.455 18.8945 205.76 17.1133 206.369 15.4727C207.002 13.8086 207.869 12.3789 208.971 11.1836C210.096 9.96484 211.408 9.01563 212.908 8.33594C214.408 7.65625 216.037 7.31641 217.795 7.31641C219.553 7.31641 221.182 7.65625 222.682 8.33594C224.182 9.01563 225.482 9.96484 226.584 11.1836C227.709 12.3789 228.576 13.8086 229.186 15.4727C229.818 17.1133 230.135 18.8945 230.135 20.8164C230.135 22.832 229.842 24.6719 229.256 26.3359C228.67 28 227.838 29.4297 226.76 30.625C225.682 31.7969 224.381 32.7109 222.857 33.3672C221.334 34 219.646 34.3164 217.795 34.3164C215.943 34.3164 214.256 34 212.732 33.3672C211.209 32.7109 209.908 31.7969 208.83 30.625C207.752 29.4297 206.92 28 206.334 26.3359C205.748 24.6719 205.455 22.832 205.455 20.8164ZM255.553 33.7188C255.67 33.9062 255.611 34 255.377 34H251.229C251.018 34 250.771 33.918 250.49 33.7539C250.209 33.5898 250.01 33.4141 249.893 33.2266L249.436 32.4883L249.295 32.2422L243.037 21.9766C242.803 21.6016 242.709 21.168 242.756 20.6758C242.803 20.1602 242.967 19.7383 243.248 19.4102L243.811 18.7773C244.232 18.3086 244.736 18.1094 245.322 18.1797C245.908 18.2266 246.365 18.5195 246.693 19.0586L254.674 32.2422C254.814 32.4766 254.955 32.7227 255.096 32.9805C255.26 33.2148 255.412 33.4609 255.553 33.7188ZM253.584 7.63281C253.701 7.63281 253.725 7.67969 253.654 7.77344C253.49 7.96094 253.244 8.23047 252.916 8.58203C252.611 8.91016 252.4 9.13281 252.283 9.25L240.154 22.8203C240.037 22.9141 239.908 23.1367 239.768 23.4883C239.65 23.8398 239.592 24.0859 239.592 24.2266V31.8203C239.592 32.4062 239.381 32.9102 238.959 33.332C238.537 33.7539 238.033 33.9648 237.447 33.9648H237.236C236.65 33.9648 236.146 33.7539 235.725 33.332C235.303 32.9102 235.092 32.4062 235.092 31.8203V9.74219C235.092 9.15625 235.303 8.65234 235.725 8.23047C236.146 7.80859 236.65 7.59766 237.236 7.59766H237.447C238.033 7.59766 238.537 7.80859 238.959 8.23047C239.381 8.65234 239.592 9.15625 239.592 9.74219V16.9141C239.592 17.4531 239.721 17.8984 239.979 18.25C240.236 18.6016 240.553 18.8594 240.928 19.0234C241.326 19.1641 241.748 19.1875 242.193 19.0938C242.639 19 243.025 18.7539 243.354 18.3555L252.564 8.01953L252.74 7.80859C252.787 7.78516 252.857 7.75 252.951 7.70312C253.045 7.65625 253.115 7.63281 253.162 7.63281H253.584ZM282.904 25.1406C282.951 25.3047 282.893 25.3867 282.729 25.3867L271.725 25.3516C271.326 25.3516 270.916 25.4922 270.494 25.7734C270.096 26.0547 269.826 26.3828 269.686 26.7578L267.646 32.207C267.553 32.4414 267.459 32.6875 267.365 32.9453C267.271 33.1797 267.178 33.4141 267.084 33.6484C267.014 33.8594 266.873 33.9648 266.662 33.9648H266.416H266.24C266.264 33.8945 266.287 33.8125 266.311 33.7188C266.334 33.6484 266.369 33.5664 266.416 33.4727C266.463 33.3555 266.51 33.2266 266.557 33.0859C266.674 32.8047 266.885 32.2539 267.189 31.4336C267.494 30.5898 267.869 29.582 268.314 28.4102C268.76 27.2383 269.24 25.9492 269.756 24.543C270.295 23.1367 270.834 21.7188 271.373 20.2891C271.912 18.8594 272.428 17.4766 272.92 16.1406C273.436 14.8047 273.893 13.6211 274.291 12.5898C274.689 11.5352 275.006 10.6914 275.24 10.0586C275.498 9.42578 275.627 9.09766 275.627 9.07422L275.908 8.33594C275.979 8.14844 276.119 7.98438 276.33 7.84375C276.564 7.67969 276.775 7.59766 276.963 7.59766H279.6C279.975 7.59766 280.361 7.73828 280.76 8.01953C281.182 8.30078 281.463 8.62891 281.604 9.00391L290.428 32.3125L290.744 33.0859C290.838 33.3438 290.908 33.5547 290.955 33.7188C291.025 33.8594 291.061 33.9414 291.061 33.9648C291.084 34.0117 291.072 34.0234 291.025 34C290.979 33.9766 290.932 33.9648 290.885 33.9648H286.947C286.76 33.9648 286.572 33.9062 286.385 33.7891C286.197 33.6484 286.068 33.4961 285.998 33.332L285.752 32.6641L285.576 32.2422C285.154 31.0469 284.709 29.8633 284.24 28.6914C283.795 27.4961 283.35 26.3008 282.904 25.1055C282.904 25.1055 282.904 25.1172 282.904 25.1406ZM271.479 21.9062C271.197 22.6562 271.256 23.3359 271.654 23.9453C272.076 24.5312 272.697 24.8242 273.518 24.8242H279.67C280.49 24.8242 281.1 24.5312 281.498 23.9453C281.92 23.3359 281.99 22.6562 281.709 21.9062L278.615 13.6797C278.451 13.1875 278.182 12.8242 277.807 12.5898C277.432 12.332 277.033 12.2031 276.611 12.2031C276.189 12.2031 275.791 12.332 275.416 12.5898C275.041 12.8242 274.76 13.1758 274.572 13.6445L271.479 21.9062ZM320.451 7.63281C320.639 7.63281 320.732 7.72656 320.732 7.91406C320.732 8.10156 320.639 8.19531 320.451 8.19531H315.037C314.451 8.19531 313.947 8.40625 313.525 8.82812C313.104 9.25 312.893 9.75391 312.893 10.3398V31.8555C312.893 32.4414 312.682 32.9453 312.26 33.3672C311.838 33.7891 311.334 34 310.748 34H310.502C309.916 34 309.412 33.7891 308.99 33.3672C308.568 32.9453 308.357 32.4414 308.357 31.8555V10.3398C308.357 9.75391 308.146 9.25 307.725 8.82812C307.303 8.40625 306.799 8.19531 306.213 8.19531H300.799C300.611 8.19531 300.518 8.10156 300.518 7.91406C300.518 7.72656 300.611 7.63281 300.799 7.63281H320.451ZM339.119 25.1406C339.166 25.3047 339.107 25.3867 338.943 25.3867L327.939 25.3516C327.541 25.3516 327.131 25.4922 326.709 25.7734C326.311 26.0547 326.041 26.3828 325.9 26.7578L323.861 32.207C323.768 32.4414 323.674 32.6875 323.58 32.9453C323.486 33.1797 323.393 33.4141 323.299 33.6484C323.229 33.8594 323.088 33.9648 322.877 33.9648H322.631H322.455C322.479 33.8945 322.502 33.8125 322.525 33.7188C322.549 33.6484 322.584 33.5664 322.631 33.4727C322.678 33.3555 322.725 33.2266 322.771 33.0859C322.889 32.8047 323.1 32.2539 323.404 31.4336C323.709 30.5898 324.084 29.582 324.529 28.4102C324.975 27.2383 325.455 25.9492 325.971 24.543C326.51 23.1367 327.049 21.7188 327.588 20.2891C328.127 18.8594 328.643 17.4766 329.135 16.1406C329.65 14.8047 330.107 13.6211 330.506 12.5898C330.904 11.5352 331.221 10.6914 331.455 10.0586C331.713 9.42578 331.842 9.09766 331.842 9.07422L332.123 8.33594C332.193 8.14844 332.334 7.98438 332.545 7.84375C332.779 7.67969 332.99 7.59766 333.178 7.59766H335.814C336.189 7.59766 336.576 7.73828 336.975 8.01953C337.396 8.30078 337.678 8.62891 337.818 9.00391L346.643 32.3125L346.959 33.0859C347.053 33.3438 347.123 33.5547 347.17 33.7188C347.24 33.8594 347.275 33.9414 347.275 33.9648C347.299 34.0117 347.287 34.0234 347.24 34C347.193 33.9766 347.146 33.9648 347.1 33.9648H343.162C342.975 33.9648 342.787 33.9062 342.6 33.7891C342.412 33.6484 342.283 33.4961 342.213 33.332L341.967 32.6641L341.791 32.2422C341.369 31.0469 340.924 29.8633 340.455 28.6914C340.01 27.4961 339.564 26.3008 339.119 25.1055C339.119 25.1055 339.119 25.1172 339.119 25.1406ZM327.693 21.9062C327.412 22.6562 327.471 23.3359 327.869 23.9453C328.291 24.5312 328.912 24.8242 329.732 24.8242H335.885C336.705 24.8242 337.314 24.5312 337.713 23.9453C338.135 23.3359 338.205 22.6562 337.924 21.9062L334.83 13.6797C334.666 13.1875 334.396 12.8242 334.021 12.5898C333.646 12.332 333.248 12.2031 332.826 12.2031C332.404 12.2031 332.006 12.332 331.631 12.5898C331.256 12.8242 330.975 13.1758 330.787 13.6445L327.693 21.9062ZM364.748 18.9883C364.654 19.0117 364.619 19.1289 364.643 19.3398C364.666 19.5273 364.713 19.6211 364.783 19.6211C366.635 20.043 368.088 20.8398 369.143 22.0117C370.197 23.1836 370.725 24.625 370.725 26.3359C370.725 27.6953 370.549 28.8672 370.197 29.8516C369.846 30.8125 369.283 31.5977 368.51 32.207C367.736 32.8164 366.729 33.2617 365.486 33.543C364.268 33.8242 362.791 33.9648 361.057 33.9648H352.795C352.209 33.9648 351.705 33.7539 351.283 33.332C350.861 32.9102 350.65 32.4062 350.65 31.8203V9.74219C350.65 9.15625 350.861 8.65234 351.283 8.23047C351.705 7.80859 352.209 7.59766 352.795 7.59766H359.721C361.455 7.59766 362.932 7.72656 364.15 7.98438C365.393 8.24219 366.4 8.65234 367.174 9.21484C367.947 9.75391 368.51 10.4687 368.861 11.3594C369.213 12.2266 369.389 13.293 369.389 14.5586C369.389 15.6133 368.979 16.5273 368.158 17.3008C367.338 18.0508 366.201 18.6133 364.748 18.9883ZM355.15 17.0898C355.15 17.6758 355.361 18.1797 355.783 18.6016C356.205 19.0234 356.709 19.2344 357.295 19.2344H360.213C361.572 19.2344 362.662 18.8477 363.482 18.0742C364.303 17.2773 364.713 16.2227 364.713 14.9102C364.713 12.4727 364.338 10.7383 363.588 9.70703C362.838 8.67578 361.561 8.16016 359.756 8.16016H357.295C356.709 8.16016 356.205 8.37109 355.783 8.79297C355.361 9.21484 355.15 9.71875 355.15 10.3047V17.0898ZM355.15 31.3281C355.15 31.9141 355.361 32.418 355.783 32.8398C356.205 33.2617 356.709 33.4727 357.295 33.4727H360.881C362.686 33.4727 363.963 32.8984 364.713 31.75C365.486 30.5781 365.873 28.6211 365.873 25.8789C365.873 24.0273 365.486 22.5391 364.713 21.4141C363.939 20.2891 362.92 19.7266 361.654 19.7266H357.295C356.709 19.7266 356.205 19.9375 355.783 20.3594C355.361 20.7812 355.15 21.2852 355.15 21.8711V31.3281ZM390.693 33.4375C390.881 33.4375 390.975 33.5312 390.975 33.7188C390.975 33.9062 390.881 34 390.693 34H377.193C376.607 34 376.104 33.7891 375.682 33.3672C375.26 32.9453 375.049 32.4414 375.049 31.8555V9.77734C375.049 9.19141 375.26 8.6875 375.682 8.26562C376.104 7.84375 376.607 7.63281 377.193 7.63281H377.404C377.99 7.63281 378.494 7.84375 378.916 8.26562C379.338 8.6875 379.549 9.19141 379.549 9.77734V31.293C379.549 31.8789 379.76 32.3828 380.182 32.8047C380.604 33.2266 381.107 33.4375 381.693 33.4375H390.693ZM412.49 33.4375C412.678 33.4375 412.771 33.5312 412.771 33.7188C412.771 33.9062 412.678 34 412.49 34H397.232C396.646 34 396.143 33.7891 395.721 33.3672C395.299 32.9453 395.088 32.4414 395.088 31.8555V9.77734C395.088 9.19141 395.299 8.6875 395.721 8.26562C396.143 7.84375 396.646 7.63281 397.232 7.63281H411.963C412.15 7.63281 412.244 7.72656 412.244 7.91406C412.244 8.10156 412.15 8.19531 411.963 8.19531H401.732C401.146 8.19531 400.643 8.40625 400.221 8.82812C399.799 9.25 399.588 9.75391 399.588 10.3398V18.0039C399.588 18.5898 399.799 19.0938 400.221 19.5156C400.643 19.9375 401.146 20.1484 401.732 20.1484H411.295C411.459 20.1484 411.541 20.2305 411.541 20.3945C411.541 20.5586 411.459 20.6406 411.295 20.6406H401.732C401.146 20.6406 400.643 20.8516 400.221 21.2734C399.799 21.6953 399.588 22.1992 399.588 22.7852V31.293C399.588 31.8789 399.799 32.3828 400.221 32.8047C400.643 33.2266 401.146 33.4375 401.732 33.4375H412.49Z" fill="black"/>
</svg>
